# xmcd
#
# Track frame offsets: 
#        150
#        16543
#        34187
#        49799
#        71479
#        87393
#        101503
#        117579
#        150543
#        167417
#        183182
#        199041
#        219114
#        234094
#        249054
#        263175
#        278232
#        292793
#        308400
#
# Disc length: 4357 seconds
#
# Revision: 0
# Processed by: cddbd v1.5.2PL0 Copyright (c) Steve Scherf et al.
# Submitted via: ExactAudioCopy v1.0b3
#
DISCID=e6110313
DTITLE=Various Artist - Deep Night Klubb Music: Disco House
DYEAR=2001
DGENRE=Euro House
TTITLE0=York - O.T.B. (On The Beach) (Milk and Sugar Radio Mix)
TTITLE1=Moloko - Sing It Back (Mousse T's Boot Edit)
TTITLE2=Spike - It Takes Two (Deeper Love) (Milk and Sugar Radio Edit)
TTITLE3=The Weather Girls - Don't Look Any Further
TTITLE4=Earth, Wind and Fire - September (Phats and Small Remix)
TTITLE5=Boogie Nights - Pornostar
TTITLE6=Stone and Heller - San Francisco (Milk and Sugar Radio Edit)
TTITLE7=The Cool, The Fab and Groovy - Soul Bossa Nova
TTITLE8=DJ Sandy vs. Housetrap - Overdrive
TTITLE9=Ray Krebbs - Fuck That
TTITLE10=Appolo 440 - Stop The Rock
TTITLE11=Basement Jaxx - Rendez-Vu
TTITLE12=Paul Johnson - Get Get Down
TTITLE13=Power House feat. Duane Harden - What You Need
TTITLE14=Cardeweg - This Groove
TTITLE15=Soulsearcher - Can't Get Enough (Radio Edit)
TTITLE16=Phats and Small presents Mutant Disco - Turn Around
TTITLE17=Wamdue Project - King Of My Castle (Roy Malone's King Edit)
TTITLE18=Armand Van Helden - Flowerz
EXTD=
EXTT0=
EXTT1=
EXTT2=
EXTT3=
EXTT4=
EXTT5=
EXTT6=
EXTT7=
EXTT8=
EXTT9=
EXTT10=
EXTT11=
EXTT12=
EXTT13=
EXTT14=
EXTT15=
EXTT16=
EXTT17=
EXTT18=
PLAYORDER=
